<svg xmlns="http://www.w3.org/2000/svg" xmlns:xlink="http://www.w3.org/1999/xlink" version="1.1" xml:space="preserve">
  <defs>
    <g id="logo">
      <path fill="#FFFFFF" d="M0 4.2V0.7C3.8 1 7 1 9.9 1c3 0 6.5-0.1 10.4-0.3v3.4c-2.4 0.1-3.8 0.3-4.3 0.6 -0.5 0.3-0.8 0.9-0.8 1.7 0 0.9 0.7 5.3 2.1 13.1l3.8 21 8.6-21.4c3.4-8.4 5.8-14.5 7.2-18.5h3l13.9 41.8 5.6-25c1.2-5.4 1.8-9.1 1.8-11.1 0-0.8-0.2-1.5-0.7-1.7 -0.5-0.3-2.1-0.5-4.8-0.6V0.7C60 1 62.6 1 63.8 1 65.1 1 67.6 1 71 0.7v3.4c-1.8 0.2-3 0.5-3.5 1 -0.5 0.5-1 1.7-1.5 3.6 -0.8 2.9-2.8 11.3-6 25.2l-5.3 23.5h-6.4L34.9 16.8l-8.6 21.8c-2.7 6.8-5.1 13.1-7.2 18.9h-4.8c-0.6-3.2-2.5-13.3-5.7-30.2L5.1 8.5c-0.4-1.9-0.7-3-1.2-3.4C3.5 4.7 2.2 4.4 0 4.2zM103.5 37.4v-3.3c4.1 0.1 7.7 0.2 10.9 0.2 2.9 0 6.1 0 9.6-0.2v2.6c-1 0.4-1.9 0.8-2.8 1.3 -0.3 2.7-0.4 5-0.4 6.9 0 1.4 0.1 4.1 0.4 8.1C116.7 55 113 56.4 110 57c-3 0.7-6.1 1.1-9.3 1.1 -8.6 0-15.4-2.7-20.3-8.1 -4.9-5.4-7.3-12.3-7.3-20.9 0-8.8 2.5-15.9 7.5-21.1 5-5.3 12.1-7.9 21.5-7.9 3.3 0 6.4 0.3 9.4 0.9 3 0.6 5.9 1.6 8.6 2.8l0.3 0.6c-0.7 3.4-1.1 7.7-1.5 12.7h-2.8c0-2.5-0.2-4.8-0.4-6.8 -1.4-2-3.3-3.4-5.5-4.4 -2.3-1-4.9-1.5-8-1.5 -5.7 0-10.3 2.1-13.7 6.3 -3.4 4.2-5.2 9.9-5.2 17.2 0 7.8 1.8 14 5.4 18.7 3.6 4.7 8 7.1 13.3 7.1 2.8 0 5.8-0.8 8.9-2.5 0.2-2.1 0.3-4 0.3-5.8 0-4.2-0.2-6.4-0.6-6.9C110.3 38.1 107.9 37.7 103.5 37.4zM129.7 57.3v-3.4c3.1-0.2 4.8-0.5 5.2-0.9 0.4-0.4 0.6-1.5 0.7-3.1 0.2-3.6 0.2-10.2 0.2-19.8 0-3.7 0-9.1-0.1-16.1 0-4.8-0.1-7.4-0.3-7.9 -0.1-0.5-0.4-0.9-0.7-1.1 -0.5-0.3-2.2-0.6-5.1-0.8V0.8c4.6 0.2 8.1 0.3 10.6 0.3 4.2 0 8-0.1 11.4-0.3v3.4c-3.1 0.2-4.8 0.5-5.2 0.8 -0.4 0.4-0.6 1.2-0.8 2.5 -0.2 2.6-0.3 7.8-0.3 15.7 0 10.5 0 17.8 0.1 21.9 0.1 4.1 0.3 6.6 0.6 7.3 0.1 0.4 0.4 0.6 0.8 0.8 0.4 0.2 2 0.4 4.7 0.6v3.4l-4-0.1C145.2 57 143 57 141 57L129.7 57.3z"/>
      <path fill="#FFFFFF" d="M154.7 1.4h-1V0.7h2.8v0.6h-1v2.8h-0.8V1.4zM156.9 0.7h1.1l0.8 2.4h0l0.8-2.4h1.1v3.4h-0.7V1.7h0l-0.8 2.4h-0.6l-0.8-2.4h0v2.4h-0.7V0.7z"/>
      <path fill="#FFFFFF" d="M159.7 57.2v-2.4c2.1-0.1 3.3-0.2 3.7-0.4 0.2-0.1 0.3-0.3 0.4-0.5 0.2-0.4 0.3-2.4 0.3-5.9 0.1-3.5 0.1-7.1 0.1-10.9 0-3.1 0-7-0.1-11.8 -0.1-3.5-0.2-5.4-0.3-5.8 -0.1-0.4-0.3-0.7-0.6-0.9s-1.5-0.3-3.4-0.3v-2.1c2.6-0.3 4.7-0.6 6.4-0.9 1.6-0.4 3.1-0.8 4.5-1.5 0.4-0.2 0.6-0.2 0.8-0.2 0.3 0 0.4 0.3 0.4 0.8l-0.1 1.3c-0.1 1.4-0.1 7-0.2 16.5l-0.1 8.2 0.1 1.6c4.1-3.5 8.4-7.7 12.8-12.7 1.4 0.1 2.6 0.2 3.7 0.2 1.3 0 2.7-0.1 4.2-0.2v2.4c-2.2 0.1-3.5 0.2-3.9 0.4 -0.4 0.1-1.1 0.6-2 1.2s-3.3 2.8-7.4 6.4l4.2 4.8c4.9 5.5 7.7 8.6 8.6 9.4 0.6 0.5 1.3 0.8 2.3 0.9v2.4c-2.2-0.1-4.2-0.2-6-0.2 -1.4 0-2.8 0.1-4.2 0.2 -1.9-2.6-3.9-4.9-5.8-7.1 -2.6-3-4.8-5.3-6.5-6.9v4.7c0 2.7 0.1 4.6 0.4 5.6 0.1 0.4 0.3 0.7 0.6 0.9 0.3 0.2 1.5 0.3 3.6 0.4v2.4c-3.8-0.1-6.3-0.2-7.6-0.2C167.2 57 164.3 57.1 159.7 57.2zM196.7 57.2v-2.4c2.2-0.1 3.5-0.2 3.8-0.4s0.6-0.7 0.7-1.6c0.2-1.2 0.2-4 0.2-8.2 0-1.8 0-3.5-0.1-5l-0.1-3.4c0-1.1-0.1-1.8-0.4-2.1s-0.9-0.4-2-0.5l-2.2-0.1v-2.3c4.7-0.4 8.6-1.2 11.6-2.5l0.7 0.6c-0.3 3.7-0.4 9.2-0.4 16.3 0 4.1 0.1 6.6 0.2 7.5 0.1 0.6 0.3 1 0.5 1.2 0.3 0.2 1.5 0.4 3.8 0.5v2.4c-3.5-0.1-6.2-0.2-8.2-0.2C204 57 201.3 57.1 196.7 57.2zM204.9 14.7c1.2 0 2.3 0.4 3.2 1.3 0.9 0.9 1.3 2 1.3 3.2 0 1.2-0.4 2.3-1.3 3.2 -0.9 0.9-2 1.3-3.2 1.3 -1.2 0-2.3-0.4-3.2-1.3 -0.9-0.9-1.3-2-1.3-3.2 0-1.3 0.4-2.3 1.3-3.2C202.5 15.1 203.6 14.7 204.9 14.7z"/>
    </g>
    <g id="favorites_vision">
      <path fill="#00539F" d="M43.8 26.7c-0.4-0.6-0.3-0.8 0.1-1.1 0.5-0.4 0.8-0.8 1.1-1.3 0.2-0.3 0.4-1 0.1-1.4 -0.6-0.7-1.2-1.4-1.9-2 -0.3-0.3-0.7-0.4-1-0.4 -0.3 0-0.8 0.1-1.2 0.7 -0.1 0.2-0.3 0.4-0.5 0.5S40 22 39.8 22.3c0 0.1-0.1 0.1-0.2 0.1 -0.1 0-0.2-0.1-0.3-0.1 -1.5-0.7-2.7-1.2-3.9-1.6C35 20.5 35 20.4 35 20l0-0.5c0-0.7 0-1.5 0-2.2 0-0.5-0.5-1-0.9-1.2 -1.2-0.5-2.5-0.6-3.8-0.1 -0.8 0.3-1.1 0.8-1.1 1.5 0 0.4 0 0.9 0 1.3 0 0.4 0 0.8 0 1.1 0 0.3-0.1 0.5-0.5 0.6 -6.2 1.4-11.1 7.4-10.8 13.3 0 4.7 1.7 8.4 5.3 11.3 2.4 2 5.5 3 8.6 3l0 0c2.8 0 5.5-0.8 7.9-2.4C46.2 41.7 48 33 43.8 26.7zM32 45.6c-6.3 0-11.3-5-11.3-11.3 0-6.3 5-11.3 11.4-11.3v-0.4l0 0.4c6.3 0 11.3 5 11.2 11.3C43.4 40.7 38.5 45.6 32 45.6zM32 35.8L32 35.8c-0.8 0-1.4-0.6-1.4-1.6 0-1 0-2.1 0-3.1v-1 -1.5c0-1 0-1.9 0-2.9 0-1.6 1-1.8 1.4-1.8 0.9 0 1.5 0.7 1.5 1.8 0 2.8 0 5.6 0 8.5 0 0.3 0 1.4-1.1 1.7C32.3 35.7 32.1 35.8 32 35.8z"/>
    </g>
    <g id="favorites_wgiki">
      <path fill="#ABB1A7" d="M4 25.5v-0.9c1 0.1 1.8 0.1 2.6 0.1 0.8 0 1.7 0 2.7-0.1v0.9c-0.6 0-1 0.1-1.1 0.2C8.1 25.7 8 25.8 8 26c0 0.2 0.2 1.4 0.6 3.4l1 5.5 2.3-5.6c0.9-2.2 1.5-3.8 1.9-4.9h0.8l3.7 11 1.5-6.6c0.3-1.4 0.5-2.4 0.5-2.9 0-0.2-0.1-0.4-0.2-0.4 -0.1-0.1-0.6-0.1-1.3-0.2v-0.9c1.1 0.1 1.8 0.1 2.1 0.1 0.3 0 1 0 1.9-0.1v0.9c-0.5 0.1-0.8 0.1-0.9 0.3 -0.1 0.1-0.3 0.4-0.4 0.9 -0.2 0.8-0.7 3-1.6 6.6l-1.4 6.2h-1.7l-3.5-10.7 -2.3 5.7c-0.7 1.8-1.3 3.4-1.9 5H7.8c-0.2-0.8-0.7-3.5-1.5-7.9l-0.9-4.9c-0.1-0.5-0.2-0.8-0.3-0.9C4.9 25.6 4.6 25.5 4 25.5zM31.2 34.2v-0.9c1.1 0 2 0.1 2.9 0.1 0.8 0 1.6 0 2.5-0.1V34c-0.3 0.1-0.5 0.2-0.7 0.3 -0.1 0.7-0.1 1.3-0.1 1.8 0 0.4 0 1.1 0.1 2.1 -1.2 0.5-2.2 0.9-2.9 1.1 -0.8 0.2-1.6 0.3-2.4 0.3 -2.3 0-4-0.7-5.3-2.1 -1.3-1.4-1.9-3.2-1.9-5.5 0-2.3 0.7-4.2 2-5.5 1.3-1.4 3.2-2.1 5.7-2.1 0.9 0 1.7 0.1 2.5 0.2 0.8 0.2 1.6 0.4 2.3 0.7l0.1 0.2c-0.2 0.9-0.3 2-0.4 3.3h-0.7c0-0.7-0.1-1.3-0.1-1.8 -0.4-0.5-0.9-0.9-1.4-1.2 -0.6-0.3-1.3-0.4-2.1-0.4 -1.5 0-2.7 0.6-3.6 1.7s-1.4 2.6-1.4 4.5c0 2.1 0.5 3.7 1.4 4.9 0.9 1.2 2.1 1.9 3.5 1.9 0.7 0 1.5-0.2 2.3-0.7 0.1-0.6 0.1-1.1 0.1-1.5 0-1.1-0.1-1.7-0.2-1.8C33 34.4 32.4 34.3 31.2 34.2zM38.1 39.4v-0.9c0.8-0.1 1.3-0.1 1.4-0.2 0.1-0.1 0.2-0.4 0.2-0.8 0.1-0.9 0.1-2.7 0.1-5.2 0-1 0-2.4 0-4.2 0-1.3 0-1.9-0.1-2.1 0-0.1-0.1-0.2-0.2-0.3 -0.1-0.1-0.6-0.2-1.3-0.2v-0.9c1.2 0.1 2.1 0.1 2.8 0.1 1.1 0 2.1 0 3-0.1v0.9c-0.8 0.1-1.3 0.1-1.4 0.2 -0.1 0.1-0.2 0.3-0.2 0.7 -0.1 0.7-0.1 2.1-0.1 4.1 0 2.8 0 4.7 0 5.8 0 1.1 0.1 1.7 0.2 1.9 0 0.1 0.1 0.2 0.2 0.2 0.1 0.1 0.5 0.1 1.2 0.2v0.9l-1.1 0c-0.6 0-1.2 0-1.7 0L38.1 39.4zM44.7 24.7h-0.3v-0.2h0.7v0.2h-0.3v0.7h-0.2V24.7zM45.3 24.5h0.3l0.2 0.6 0 0 0.2-0.6h0.3v0.9h-0.2v-0.6l0 0 -0.2 0.6h-0.2l-0.2-0.6 0 0v0.6h-0.2L45.3 24.5 45.3 24.5zM46 39.4v-0.6c0.6 0 0.9-0.1 1-0.1 0.1 0 0.1-0.1 0.1-0.1 0.1-0.1 0.1-0.6 0.1-1.6 0-0.9 0-1.9 0-2.9 0-0.8 0-1.8 0-3.1 0-0.9-0.1-1.4-0.1-1.5 0-0.1-0.1-0.2-0.2-0.2 -0.1-0.1-0.4-0.1-0.9-0.1v-0.6c0.7-0.1 1.2-0.2 1.7-0.2 0.4-0.1 0.8-0.2 1.2-0.4 0.1-0.1 0.2-0.1 0.2-0.1 0.1 0 0.1 0.1 0.1 0.2l0 0.3c0 0.4 0 1.8-0.1 4.3l0 2.2 0 0.4c1.1-0.9 2.2-2 3.4-3.3 0.4 0 0.7 0.1 1 0.1 0.3 0 0.7 0 1.1-0.1v0.6c-0.6 0-0.9 0.1-1 0.1 -0.1 0-0.3 0.2-0.5 0.3 -0.2 0.2-0.9 0.7-1.9 1.7l1.1 1.3c1.3 1.4 2 2.3 2.3 2.5 0.2 0.1 0.3 0.2 0.6 0.2v0.6c-0.6 0-1.1-0.1-1.6-0.1 -0.4 0-0.7 0-1.1 0.1 -0.5-0.7-1-1.3-1.5-1.9 -0.7-0.8-1.3-1.4-1.7-1.8v1.2c0 0.7 0 1.2 0.1 1.5 0 0.1 0.1 0.2 0.2 0.2 0.1 0.1 0.4 0.1 0.9 0.1v0.6c-1 0-1.7-0.1-2-0.1C48 39.3 47.2 39.4 46 39.4zM55.7 39.4v-0.6c0.6 0 0.9-0.1 1-0.1 0.1-0.1 0.2-0.2 0.2-0.4 0.1-0.3 0.1-1.1 0.1-2.2 0-0.5 0-0.9 0-1.3l0-0.9c0-0.3 0-0.5-0.1-0.6 -0.1-0.1-0.2-0.1-0.5-0.1l-0.6 0v-0.6c1.2-0.1 2.3-0.3 3-0.7l0.2 0.2c-0.1 1-0.1 2.4-0.1 4.3 0 1.1 0 1.7 0.1 2 0 0.2 0.1 0.3 0.1 0.3 0.1 0.1 0.4 0.1 1 0.1v0.6c-0.9 0-1.6-0.1-2.2-0.1C57.6 39.3 56.9 39.4 55.7 39.4zM57.9 28.2c0.3 0 0.6 0.1 0.8 0.3s0.3 0.5 0.3 0.8 -0.1 0.6-0.3 0.8c-0.2 0.2-0.5 0.3-0.8 0.3 -0.3 0-0.6-0.1-0.8-0.3s-0.3-0.5-0.3-0.8c0-0.3 0.1-0.6 0.3-0.8C57.2 28.3 57.5 28.2 57.9 28.2z"/>
    </g>
    <g id="favorites_webex">
      <path fill="#0164CA" d="M32 49.6c-9.7 0-17.6-7.9-17.6-17.6S22.3 14.4 32 14.4"/>
      <path fill="#80C31C" d="M32 14.4c9.7 0 17.6 7.9 17.6 17.6S41.7 49.6 32 49.6"/>
    </g>
    <g id="favorites_phone-list">
      <path fill="#FF9933" d="M27.3 25.8c-5.1 3 2.7 17.6 8.3 14.4 1 1.7 4.2 7.3 5.2 9 -2.4 1.4-4.4 2.2-7.1 0.7 -7.6-4.4-16-18.9-15.8-27.5 0.1-3 1.9-4.2 4.2-5.5C23.1 18.5 26.3 24 27.3 25.8L27.3 25.8zM29.5 25.5c-0.5 0.3-1.3 0.1-1.6-0.4L23 16.6c-0.3-0.5-0.1-1.3 0.4-1.6l2.6-1.5c0.5-0.3 1.3-0.1 1.6 0.4l4.9 8.5c0.3 0.5 0.1 1.3-0.4 1.6L29.5 25.5 29.5 25.5zM42.9 48.7c-0.5 0.3-1.3 0.1-1.6-0.4l-4.9-8.5c-0.3-0.5-0.1-1.3 0.4-1.6l2.6-1.5c0.5-0.3 1.3-0.1 1.6 0.4l4.9 8.5c0.3 0.5 0.1 1.3-0.4 1.6L42.9 48.7 42.9 48.7z"/>
    </g>
    <g id="favorites_google">
      <path fill="#DD4B39" d="M31.8 44.7c-3.3 0-5.8-2.1-5.8-4.7 0-2.5 3-4.6 6.3-4.5 0.8 0 1.5 0.1 2.2 0.3 1.8 1.3 3.1 2 3.5 3.4 0.1 0.3 0.1 0.6 0.1 0.9C38.1 42.7 36.5 44.7 31.8 44.7M32.7 29.8c-2.2-0.1-4.4-2.5-4.8-5.4 -0.4-3 1.1-5.2 3.4-5.1s4.4 2.4 4.8 5.4C36.4 27.5 34.9 29.8 32.7 29.8M37.3 34.1c-0.8-0.6-2.3-1.9-2.3-2.7 0-0.9 0.3-1.4 1.7-2.5s2.5-2.7 2.5-4.5c0-2.2-1-4.3-2.8-5h2.8l2-1.4h-8.7c-3.9 0-7.6 3-7.6 6.4 0 3.5 2.7 6.3 6.6 6.3 0.3 0 0.5 0 0.8 0 -0.3 0.5-0.4 1-0.4 1.6 0 1 0.5 1.8 1.2 2.4 -0.5 0-1 0-1.5 0 -4.8 0-8.6 3.1-8.6 6.3 0 3.1 4.1 5.1 8.9 5.1 5.5 0 8.5-3.1 8.5-6.3C40.4 37.3 39.6 35.8 37.3 34.1"/>
    </g>
    <g id="favorites_wgi">
      <path fill="#00833E" d="M29.1 22.5l4.4 19c0.1 0.5 0.6 0.8 1.1 0.8h4.5c0.5 0 0.8-0.4 0.7-0.8l-4.4-19c-0.1-0.5-0.6-0.9-1.1-0.9h-4.5C29.4 21.6 29 22 29.1 22.5zM40 21.7c-0.5 0-0.8 0.4-0.7 0.9l2.8 9.2c0.1-0.4 0.5-1 0.7-1.5 1.3-3.1 3.9-7.5 3-8.1 -0.2-0.2 0 0-0.2-0.2 -0.4-0.3-0.8-0.2-1.3-0.2C44.3 21.7 40 21.7 40 21.7zM18 22.5l4.4 19c0.1 0.5 0.6 0.8 1.1 0.8H28c0.5 0 0.8-0.4 0.7-0.8l-4.4-19c-0.1-0.5-0.6-0.9-1.1-0.9h-4.5C18.2 21.6 17.9 22 18 22.5z"/>
    </g>
    <g id="favorites_facebook">
      <path fill="#3B5998" d="M25.2 27.2h2.9v-2.8c0-1.2 0-3.2 0.9-4.4 1-1.3 2.3-2.1 4.5-2.1 3.7 0 5.2 0.5 5.2 0.5L38 22.8c0 0-1.2-0.4-2.3-0.4s-2.1 0.4-2.1 1.5v3.3h4.6l-0.3 4.2h-4.3V46h-5.4V31.4h-2.9L25.2 27.2 25.2 27.2z"/>
    </g>
    <g id="favorites_instagram">
      <path fill="#517FA4" d="M40.6 18H23.4c-3 0-5.4 2.4-5.4 5.4v5.7 11.5c0 3 2.4 5.4 5.4 5.4h17.2c3 0 5.4-2.4 5.4-5.4V29.1v-5.7C46 20.4 43.6 18 40.6 18zM42.2 21.2h0.6v0.6V26L38 26l0-4.8L42.2 21.2zM28 29.1c0.9-1.2 2.4-2.1 4-2.1 1.7 0 3.1 0.8 4 2.1 0.6 0.8 0.9 1.8 0.9 2.9 0 2.7-2.2 4.9-5 4.9s-5-2.2-5-4.9C27.1 30.9 27.4 29.9 28 29.1zM43.3 40.6c0 1.5-1.2 2.7-2.7 2.7H23.4c-1.5 0-2.7-1.2-2.7-2.7V29.1h4.2C24.5 30 24.3 31 24.3 32c0 4.2 3.5 7.7 7.7 7.7 4.2 0 7.7-3.4 7.7-7.7 0-1-0.2-2-0.6-2.9h4.2L43.3 40.6 43.3 40.6z"/>
    </g>
    <g id="favorites_linkedin">
      <path fill="#007BB6" d="M24.1 43.6h-5.5V26.1h5.5V43.6zM21.3 23.9L21.3 23.9c-2 0-3.3-1.3-3.3-3 0-1.7 1.3-3 3.4-3 2 0 3.3 1.3 3.3 3C24.6 22.5 23.3 23.9 21.3 23.9zM46 43.6h-6.2v-9.1c0-2.4-1-4-3.1-4 -1.6 0-2.5 1.1-3 2.2 -0.2 0.4-0.1 0.9-0.1 1.4v9.5h-6.1c0 0 0.1-16.1 0-17.5h6.1v2.8c0.4-1.2 2.3-2.9 5.5-2.9 3.9 0 7 2.5 7 8L46 43.6 46 43.6z"/>
    </g>
    <g id="favorites_twitter">
      <path fill="#00ACED" d="M46 24.8c-1 0.5-2.2 0.8-3.3 0.9 1.2-0.7 2.1-1.8 2.5-3.2 -1.1 0.7-2.3 1.1-3.7 1.4 -1-1.1-2.5-1.8-4.2-1.8 -3.2 0-5.8 2.6-5.8 5.8 0 0.5 0 0.9 0.1 1.3 -4.8-0.2-9-2.5-11.9-6 -0.5 0.9-0.8 1.8-0.8 2.9 0 2 1 3.8 2.6 4.8 -0.9 0-1.8-0.3-2.6-0.7v0.1c0 2.8 2 5.1 4.6 5.6 -0.5 0.1-1 0.2-1.5 0.2 -0.4 0-0.7 0-1.1-0.1 0.7 2.3 2.9 4 5.4 4 -2 1.5-4.5 2.5-7.2 2.5 -0.5 0-0.9 0-1.4-0.1 2.5 1.6 5.6 2.6 8.8 2.6 10.6 0 16.4-8.8 16.4-16.4 0-0.2 0-0.5 0-0.8C44.3 27 45.3 26 46 24.8"/>
    </g>
    <g id="favorites_youtube">
      <path fill="#BB0000" d="M37.8 22.5v5.4c-0.1 0.2-0.3 0.3-0.4 0.4 -0.2 0.1-0.3 0.1-0.4 0.1 -0.1 0-0.2 0-0.3-0.1 -0.1-0.1-0.1-0.2-0.1-0.4v-5.4h-1.5v5.9c0 0.4 0.1 0.7 0.3 1 0.2 0.2 0.4 0.3 0.8 0.3 0.3 0 0.5-0.1 0.8-0.2 0.3-0.2 0.5-0.4 0.8-0.7v0.8h1.5v-7L37.8 22.5 37.8 22.5zM33.3 22.9c-0.4-0.4-0.9-0.5-1.5-0.5 -0.6 0-1.2 0.2-1.6 0.5 -0.4 0.3-0.6 0.8-0.6 1.3v3.6c0 0.6 0.2 1.1 0.6 1.4 0.4 0.4 0.9 0.5 1.5 0.5 0.6 0 1.2-0.2 1.5-0.5 0.4-0.3 0.6-0.8 0.6-1.4v-3.6C33.9 23.6 33.7 23.2 33.3 22.9zM32.4 27.9c0 0.2-0.1 0.3-0.2 0.4 -0.1 0.1-0.3 0.2-0.5 0.2 -0.2 0-0.3-0.1-0.4-0.2 -0.1-0.1-0.2-0.2-0.2-0.4v-3.9c0-0.2 0.1-0.3 0.2-0.4 0.1-0.1 0.2-0.1 0.4-0.1s0.3 0 0.5 0.1c0.1 0.1 0.2 0.2 0.2 0.4V27.9zM28 20l-1 3.8h-0.1l-1-3.8h-1.6l1.9 5.8v3.8h1.6v-4l1.9-5.6H28zM39.2 36.8c0.1 0.1 0.1 0.3 0.1 0.6v0.7h-1.1v-0.7c0-0.3 0-0.5 0.1-0.6 0.1-0.1 0.2-0.2 0.4-0.2C39 36.7 39.1 36.7 39.2 36.8zM34.8 36.8c-0.1-0.1-0.2-0.2-0.4-0.2 -0.1 0-0.2 0-0.3 0.1 -0.1 0-0.2 0.1-0.3 0.2v4c0.1 0.1 0.2 0.2 0.3 0.2 0.1 0 0.2 0.1 0.3 0.1 0.2 0 0.3 0 0.3-0.1 0.1-0.1 0.1-0.2 0.1-0.4v-3.3C34.9 37.1 34.9 36.9 34.8 36.8zM34.8 36.8c-0.1-0.1-0.2-0.2-0.4-0.2 -0.1 0-0.2 0-0.3 0.1 -0.1 0-0.2 0.1-0.3 0.2v4c0.1 0.1 0.2 0.2 0.3 0.2 0.1 0 0.2 0.1 0.3 0.1 0.2 0 0.3 0 0.3-0.1 0.1-0.1 0.1-0.2 0.1-0.4v-3.3C34.9 37.1 34.9 36.9 34.8 36.8zM42 31.9H22c-2.2 0-4 1.8-4 4V40c0 2.2 1.8 4 4 4H42c2.2 0 4-1.8 4-4v-4.1C46 33.7 44.2 31.9 42 31.9zM27.4 34.7h-1.5v7.4h-1.5v-7.4h-1.5v-1.3h4.4L27.4 34.7 27.4 34.7zM31.6 42.1h-1.3v-0.7c-0.2 0.3-0.5 0.5-0.7 0.6 -0.3 0.1-0.5 0.2-0.7 0.2 -0.3 0-0.5-0.1-0.7-0.3 -0.1-0.2-0.2-0.5-0.2-0.8v-5.4h1.3v4.9c0 0.1 0 0.3 0.1 0.3 0 0.1 0.1 0.1 0.3 0.1 0.1 0 0.2 0 0.4-0.1 0.1-0.1 0.3-0.2 0.4-0.3v-4.9h1.3L31.6 42.1 31.6 42.1zM36.2 40.8c0 0.5-0.1 0.8-0.3 1 -0.2 0.2-0.5 0.4-0.9 0.4 -0.3 0-0.5 0-0.7-0.1 -0.2-0.1-0.4-0.2-0.5-0.4v0.5h-1.3v-8.7h1.3v2.8c0.2-0.2 0.3-0.3 0.5-0.4s0.4-0.2 0.6-0.2c0.4 0 0.7 0.1 0.9 0.4s0.3 0.7 0.3 1.2L36.2 40.8 36.2 40.8zM40.7 39.1h-2.5v1.2c0 0.3 0 0.6 0.1 0.7 0.1 0.1 0.2 0.2 0.4 0.2 0.2 0 0.3-0.1 0.4-0.2 0.1-0.1 0.1-0.3 0.1-0.7V40h1.3v0.3c0 0.7-0.2 1.2-0.5 1.5 -0.3 0.3-0.8 0.5-1.4 0.5 -0.6 0-1-0.2-1.4-0.5 -0.3-0.3-0.5-0.8-0.5-1.5v-2.9c0-0.5 0.2-1 0.5-1.4 0.3-0.3 0.8-0.5 1.4-0.5s1 0.2 1.3 0.5c0.3 0.3 0.5 0.8 0.5 1.4C40.7 37.5 40.7 39.1 40.7 39.1zM34.4 36.6c-0.1 0-0.2 0-0.3 0.1 -0.1 0-0.2 0.1-0.3 0.2v4c0.1 0.1 0.2 0.2 0.3 0.2 0.1 0 0.2 0.1 0.3 0.1 0.2 0 0.3 0 0.3-0.1 0.1-0.1 0.1-0.2 0.1-0.4v-3.3c0-0.2 0-0.4-0.1-0.5C34.7 36.7 34.5 36.6 34.4 36.6zM34.8 36.8c-0.1-0.1-0.2-0.2-0.4-0.2 -0.1 0-0.2 0-0.3 0.1 -0.1 0-0.2 0.1-0.3 0.2v4c0.1 0.1 0.2 0.2 0.3 0.2 0.1 0 0.2 0.1 0.3 0.1 0.2 0 0.3 0 0.3-0.1 0.1-0.1 0.1-0.2 0.1-0.4v-3.3C34.9 37.1 34.9 36.9 34.8 36.8zM34.8 36.8c-0.1-0.1-0.2-0.2-0.4-0.2 -0.1 0-0.2 0-0.3 0.1 -0.1 0-0.2 0.1-0.3 0.2v4c0.1 0.1 0.2 0.2 0.3 0.2 0.1 0 0.2 0.1 0.3 0.1 0.2 0 0.3 0 0.3-0.1 0.1-0.1 0.1-0.2 0.1-0.4v-3.3C34.9 37.1 34.9 36.9 34.8 36.8z"/>
    </g>
  </defs>
</svg>
