<svg xmlns="http://www.w3.org/2000/svg" xmlns:xlink="http://www.w3.org/1999/xlink" version="1.1" xml:space="preserve">
  <defs>
    <g id="logo">
      <path fill="#FFFFFF" d="M0 4.2V0.7C3.8 1 7 1 9.9 1c3 0 6.5-0.1 10.4-0.3v3.4c-2.4 0.1-3.8 0.3-4.3 0.6 -0.5 0.3-0.8 0.9-0.8 1.7 0 0.9 0.7 5.3 2.1 13.1l3.8 21 8.6-21.4c3.4-8.4 5.8-14.5 7.2-18.5h3l13.9 41.8 5.6-25c1.2-5.4 1.8-9.1 1.8-11.1 0-0.8-0.2-1.5-0.7-1.7 -0.5-0.3-2.1-0.5-4.8-0.6V0.7C60 1 62.6 1 63.8 1 65.1 1 67.6 1 71 0.7v3.4c-1.8 0.2-3 0.5-3.5 1 -0.5 0.5-1 1.7-1.5 3.6 -0.8 2.9-2.8 11.3-6 25.2l-5.3 23.5h-6.4L34.9 16.8l-8.6 21.8c-2.7 6.8-5.1 13.1-7.2 18.9h-4.8c-0.6-3.2-2.5-13.3-5.7-30.2L5.1 8.5c-0.4-1.9-0.7-3-1.2-3.4C3.5 4.7 2.2 4.4 0 4.2zM103.5 37.4v-3.3c4.1 0.1 7.7 0.2 10.9 0.2 2.9 0 6.1 0 9.6-0.2v2.6c-1 0.4-1.9 0.8-2.8 1.3 -0.3 2.7-0.4 5-0.4 6.9 0 1.4 0.1 4.1 0.4 8.1C116.7 55 113 56.4 110 57c-3 0.7-6.1 1.1-9.3 1.1 -8.6 0-15.4-2.7-20.3-8.1 -4.9-5.4-7.3-12.3-7.3-20.9 0-8.8 2.5-15.9 7.5-21.1 5-5.3 12.1-7.9 21.5-7.9 3.3 0 6.4 0.3 9.4 0.9 3 0.6 5.9 1.6 8.6 2.8l0.3 0.6c-0.7 3.4-1.1 7.7-1.5 12.7h-2.8c0-2.5-0.2-4.8-0.4-6.8 -1.4-2-3.3-3.4-5.5-4.4 -2.3-1-4.9-1.5-8-1.5 -5.7 0-10.3 2.1-13.7 6.3 -3.4 4.2-5.2 9.9-5.2 17.2 0 7.8 1.8 14 5.4 18.7 3.6 4.7 8 7.1 13.3 7.1 2.8 0 5.8-0.8 8.9-2.5 0.2-2.1 0.3-4 0.3-5.8 0-4.2-0.2-6.4-0.6-6.9C110.3 38.1 107.9 37.7 103.5 37.4zM129.7 57.3v-3.4c3.1-0.2 4.8-0.5 5.2-0.9 0.4-0.4 0.6-1.5 0.7-3.1 0.2-3.6 0.2-10.2 0.2-19.8 0-3.7 0-9.1-0.1-16.1 0-4.8-0.1-7.4-0.3-7.9 -0.1-0.5-0.4-0.9-0.7-1.1 -0.5-0.3-2.2-0.6-5.1-0.8V0.8c4.6 0.2 8.1 0.3 10.6 0.3 4.2 0 8-0.1 11.4-0.3v3.4c-3.1 0.2-4.8 0.5-5.2 0.8 -0.4 0.4-0.6 1.2-0.8 2.5 -0.2 2.6-0.3 7.8-0.3 15.7 0 10.5 0 17.8 0.1 21.9 0.1 4.1 0.3 6.6 0.6 7.3 0.1 0.4 0.4 0.6 0.8 0.8 0.4 0.2 2 0.4 4.7 0.6v3.4l-4-0.1C145.2 57 143 57 141 57L129.7 57.3z"/>
      <path fill="#FFFFFF" d="M154.7 1.4h-1V0.7h2.8v0.6h-1v2.8h-0.8V1.4zM156.9 0.7h1.1l0.8 2.4h0l0.8-2.4h1.1v3.4h-0.7V1.7h0l-0.8 2.4h-0.6l-0.8-2.4h0v2.4h-0.7V0.7z"/>
      <path fill="#FFFFFF" d="M159.7 57.2v-2.4c2.1-0.1 3.3-0.2 3.7-0.4 0.2-0.1 0.3-0.3 0.4-0.5 0.2-0.4 0.3-2.4 0.3-5.9 0.1-3.5 0.1-7.1 0.1-10.9 0-3.1 0-7-0.1-11.8 -0.1-3.5-0.2-5.4-0.3-5.8 -0.1-0.4-0.3-0.7-0.6-0.9s-1.5-0.3-3.4-0.3v-2.1c2.6-0.3 4.7-0.6 6.4-0.9 1.6-0.4 3.1-0.8 4.5-1.5 0.4-0.2 0.6-0.2 0.8-0.2 0.3 0 0.4 0.3 0.4 0.8l-0.1 1.3c-0.1 1.4-0.1 7-0.2 16.5l-0.1 8.2 0.1 1.6c4.1-3.5 8.4-7.7 12.8-12.7 1.4 0.1 2.6 0.2 3.7 0.2 1.3 0 2.7-0.1 4.2-0.2v2.4c-2.2 0.1-3.5 0.2-3.9 0.4 -0.4 0.1-1.1 0.6-2 1.2s-3.3 2.8-7.4 6.4l4.2 4.8c4.9 5.5 7.7 8.6 8.6 9.4 0.6 0.5 1.3 0.8 2.3 0.9v2.4c-2.2-0.1-4.2-0.2-6-0.2 -1.4 0-2.8 0.1-4.2 0.2 -1.9-2.6-3.9-4.9-5.8-7.1 -2.6-3-4.8-5.3-6.5-6.9v4.7c0 2.7 0.1 4.6 0.4 5.6 0.1 0.4 0.3 0.7 0.6 0.9 0.3 0.2 1.5 0.3 3.6 0.4v2.4c-3.8-0.1-6.3-0.2-7.6-0.2C167.2 57 164.3 57.1 159.7 57.2zM196.7 57.2v-2.4c2.2-0.1 3.5-0.2 3.8-0.4s0.6-0.7 0.7-1.6c0.2-1.2 0.2-4 0.2-8.2 0-1.8 0-3.5-0.1-5l-0.1-3.4c0-1.1-0.1-1.8-0.4-2.1s-0.9-0.4-2-0.5l-2.2-0.1v-2.3c4.7-0.4 8.6-1.2 11.6-2.5l0.7 0.6c-0.3 3.7-0.4 9.2-0.4 16.3 0 4.1 0.1 6.6 0.2 7.5 0.1 0.6 0.3 1 0.5 1.2 0.3 0.2 1.5 0.4 3.8 0.5v2.4c-3.5-0.1-6.2-0.2-8.2-0.2C204 57 201.3 57.1 196.7 57.2zM204.9 14.7c1.2 0 2.3 0.4 3.2 1.3 0.9 0.9 1.3 2 1.3 3.2 0 1.2-0.4 2.3-1.3 3.2 -0.9 0.9-2 1.3-3.2 1.3 -1.2 0-2.3-0.4-3.2-1.3 -0.9-0.9-1.3-2-1.3-3.2 0-1.3 0.4-2.3 1.3-3.2C202.5 15.1 203.6 14.7 204.9 14.7z"/>
    </g>
  </defs>
</svg>
